<svg width="22" height="23" viewBox="0 0 22 23" fill="none" xmlns="http://www.w3.org/2000/svg">
<path fillRule="evenodd" clipRule="evenodd" d="M15.5392 8.33223L2.20665 1.08999C1.82861 0.885659 1.47994 0.838126 1.19751 0.925166L12.1181 11.7126L15.5392 8.33223Z" fill="url(#paint0_linear)"/>
<path fillRule="evenodd" clipRule="evenodd" d="M15.5566 15.1096L20.1081 12.6373C21.031 12.1341 21.031 11.3156 20.1081 10.8137L15.5397 8.33215L12.118 11.7125L15.5566 15.1096Z" fill="url(#paint1_linear)"/>
<path fillRule="evenodd" clipRule="evenodd" d="M1.1969 0.925049C0.791369 1.05036 0.528931 1.45593 0.528931 2.06954L0.53143 21.3814C0.53143 21.9882 0.785746 22.3876 1.1794 22.5209L12.1181 11.7143L1.1969 0.925049Z" fill="url(#paint2_linear)"/>
<path fillRule="evenodd" clipRule="evenodd" d="M1.17932 22.5209C1.46363 22.616 1.81917 22.5716 2.20658 22.3617L15.5547 15.1095L12.118 11.7144L1.17932 22.5209Z" fill="url(#paint3_linear)"/>
<mask id="mask0" mask-type="alpha" maskUnits="userSpaceOnUse" x="1" y="11" width="15" height="12">
<path fillRule="evenodd" clipRule="evenodd" d="M1.17932 22.5209C1.46363 22.616 1.81917 22.5716 2.20658 22.3617L15.5547 15.1095L12.118 11.7144L1.17932 22.5209Z" fill="white"/>
</mask>
<g mask="url(#mask0)">
</g>
<defs>
<linearGradient id="paint0_linear" x1="-5.27519" y1="-0.211507" x2="-0.934257" y2="14.56" gradientUnits="userSpaceOnUse">
<stop stop-color="#19A3B4"/>
<stop offset="0.348168" stop-color="#5BC3AF"/>
<stop offset="0.922336" stop-color="#C8F7A6"/>
<stop offset="1" stop-color="#D7FEA5"/>
</linearGradient>
<linearGradient id="paint1_linear" x1="0.923456" y1="3.61844" x2="5.92065" y2="19.9529" gradientUnits="userSpaceOnUse">
<stop stop-color="#FC227C"/>
<stop offset="1" stop-color="#FEEB7B"/>
</linearGradient>
<linearGradient id="paint2_linear" x1="-1.87037" y1="-0.110549" x2="5.46144" y2="19.076" gradientUnits="userSpaceOnUse">
<stop stop-color="#0E4DA0"/>
<stop offset="1" stop-color="#6BFED4"/>
</linearGradient>
<linearGradient id="paint3_linear" x1="12.2947" y1="6.64792" x2="-1.40878" y2="22.4341" gradientUnits="userSpaceOnUse">
<stop stop-color="#FC472E"/>
<stop offset="0.00331892" stop-color="#FC472F"/>
<stop offset="1" stop-color="#893CD8"/>
</linearGradient>
</defs>
</svg>
