<svg width="171" height="41" viewBox="0 0 171 41" fill="none" xmlns="http://www.w3.org/2000/svg">
<rect x="0.5" y="0.5" width="170" height="40" rx="20" fill="#EBF5FF" stroke="#B3D9FF"/>
<rect x="130.5" y="0.5" width="40" height="40" rx="20" fill="#EBF5FF" stroke="#B3D9FF"/>
<path fillRule="evenodd" clipRule="evenodd" d="M150.105 20.2583L155.34 15.0232C155.574 14.7893 155.574 14.4103 155.34 14.1762C155.105 13.9412 154.723 13.9412 154.488 14.1762L149.258 19.4103L144.023 14.1762C143.789 13.9412 143.41 13.9412 143.176 14.1762C142.941 14.4103 142.941 14.7893 143.176 15.0273L148.41 20.2583L143.176 25.4882C142.941 25.7232 142.941 26.1053 143.176 26.3403C143.293 26.4572 143.445 26.5162 143.602 26.5162C143.754 26.5162 143.906 26.4572 144.023 26.3403L149.258 21.1052L154.488 26.3403C154.609 26.4572 154.762 26.5162 154.914 26.5162C155.066 26.5162 155.223 26.4572 155.34 26.3403C155.574 26.1053 155.574 25.7232 155.34 25.4882L150.105 20.2583Z" fill="#2979FF"/>
<path d="M25.025 13.305C26.605 13.305 27.905 13.83 28.925 14.88C29.945 15.92 30.455 17.21 30.455 18.75C30.455 20.28 29.945 21.57 28.925 22.62C27.905 23.67 26.605 24.195 25.025 24.195C24.065 24.195 23.175 23.965 22.355 23.505C21.545 23.035 20.925 22.41 20.495 21.63L21.71 20.94C22 21.51 22.445 21.97 23.045 22.32C23.645 22.66 24.305 22.83 25.025 22.83C26.125 22.83 27.03 22.51 27.74 21.87C28.47 21.22 28.9 20.395 29.03 19.395H23.63V18.09H29.03C28.9 17.09 28.47 16.265 27.74 15.615C27.03 14.975 26.125 14.655 25.025 14.655C24.305 14.655 23.645 14.83 23.045 15.18C22.455 15.52 22.01 15.98 21.71 16.56L20.495 15.855C20.925 15.085 21.55 14.465 22.37 13.995C23.17 13.535 24.055 13.305 25.025 13.305ZM32.4173 16.5H37.9823V24H36.6773V17.76H33.7223V20.82C33.7223 22.02 33.4823 22.875 33.0023 23.385C32.5223 23.885 31.8173 24.09 30.8873 24V22.77C31.4073 22.84 31.7923 22.725 32.0423 22.425C32.2923 22.115 32.4173 21.57 32.4173 20.79V16.5ZM47.1597 20.85H40.8747C41.0047 21.51 41.3097 22.03 41.7897 22.41C42.2697 22.78 42.8697 22.965 43.5897 22.965C44.5797 22.965 45.2997 22.6 45.7497 21.87L46.8597 22.5C46.1197 23.63 45.0197 24.195 43.5597 24.195C42.3797 24.195 41.4097 23.825 40.6497 23.085C39.9097 22.325 39.5397 21.38 39.5397 20.25C39.5397 19.11 39.9047 18.17 40.6347 17.43C41.3647 16.68 42.3097 16.305 43.4697 16.305C44.5697 16.305 45.4647 16.695 46.1547 17.475C46.8547 18.235 47.2047 19.165 47.2047 20.265C47.2047 20.455 47.1897 20.65 47.1597 20.85ZM43.4697 17.535C42.7797 17.535 42.1997 17.73 41.7297 18.12C41.2697 18.51 40.9847 19.04 40.8747 19.71H45.8847C45.7747 19.02 45.4997 18.485 45.0597 18.105C44.6197 17.725 44.0897 17.535 43.4697 17.535ZM51.3448 20.13L55.0498 24H53.4298L50.0098 20.445V24H48.7048V16.5H50.0098V19.815L53.2498 16.5H54.9298L51.3448 20.13ZM55.4234 16.5H61.8434V17.76H59.2934V24H57.9884V17.76H55.4234V16.5ZM67.1271 16.305C68.1771 16.305 69.0721 16.69 69.8121 17.46C70.5521 18.23 70.9221 19.16 70.9221 20.25C70.9221 21.35 70.5521 22.285 69.8121 23.055C69.0821 23.815 68.1871 24.195 67.1271 24.195C65.8871 24.195 64.9421 23.7 64.2921 22.71V27H62.9871V16.5H64.2921V17.79C64.9421 16.8 65.8871 16.305 67.1271 16.305ZM66.9621 22.935C67.7121 22.935 68.3421 22.68 68.8521 22.17C69.3621 21.64 69.6171 21 69.6171 20.25C69.6171 19.49 69.3621 18.855 68.8521 18.345C68.3421 17.825 67.7121 17.565 66.9621 17.565C66.2021 17.565 65.5671 17.825 65.0571 18.345C64.5471 18.855 64.2921 19.49 64.2921 20.25C64.2921 21 64.5471 21.64 65.0571 22.17C65.5671 22.68 66.2021 22.935 66.9621 22.935ZM78.8093 23.055C78.0493 23.815 77.1143 24.195 76.0043 24.195C74.8943 24.195 73.9593 23.815 73.1993 23.055C72.4393 22.295 72.0593 21.36 72.0593 20.25C72.0593 19.14 72.4393 18.205 73.1993 17.445C73.9593 16.685 74.8943 16.305 76.0043 16.305C77.1143 16.305 78.0493 16.685 78.8093 17.445C79.5793 18.215 79.9643 19.15 79.9643 20.25C79.9643 21.35 79.5793 22.285 78.8093 23.055ZM76.0043 22.92C76.7543 22.92 77.3843 22.665 77.8943 22.155C78.4043 21.645 78.6593 21.01 78.6593 20.25C78.6593 19.49 78.4043 18.855 77.8943 18.345C77.3843 17.835 76.7543 17.58 76.0043 17.58C75.2643 17.58 74.6393 17.835 74.1293 18.345C73.6193 18.855 73.3643 19.49 73.3643 20.25C73.3643 21.01 73.6193 21.645 74.1293 22.155C74.6393 22.665 75.2643 22.92 76.0043 22.92ZM86.6927 19.62V16.5H87.9977V24H86.6927V20.865H82.8077V24H81.5027V16.5H82.8077V19.62H86.6927ZM91.2741 21.765L95.4291 16.5H96.4791V24H95.1891V18.735L91.0341 24H89.9841V16.5H91.2741V21.765ZM101.106 20.13L104.811 24H103.191L99.7706 20.445V24H98.4656V16.5H99.7706V19.815L103.011 16.5H104.691L101.106 20.13ZM111.546 17.79V16.5H112.851V24H111.546V22.71C110.906 23.7 109.961 24.195 108.711 24.195C107.651 24.195 106.756 23.815 106.026 23.055C105.286 22.285 104.916 21.35 104.916 20.25C104.916 19.16 105.286 18.23 106.026 17.46C106.766 16.69 107.661 16.305 108.711 16.305C109.961 16.305 110.906 16.8 111.546 17.79ZM108.876 22.935C109.636 22.935 110.271 22.68 110.781 22.17C111.291 21.64 111.546 21 111.546 20.25C111.546 19.49 111.291 18.855 110.781 18.345C110.271 17.825 109.636 17.565 108.876 17.565C108.126 17.565 107.496 17.825 106.986 18.345C106.476 18.855 106.221 19.49 106.221 20.25C106.221 21 106.476 21.64 106.986 22.17C107.496 22.68 108.126 22.935 108.876 22.935Z" fill="#2979FF"/>
</svg>
