<svg width="153" height="41" viewBox="0 0 153 41" fill="none" xmlns="http://www.w3.org/2000/svg">
<rect x="0.5" y="0.5" width="152" height="40" rx="20" fill="#EBF5FF" stroke="#B3D9FF"/>
<rect x="112.5" y="0.5" width="40" height="40" rx="20" fill="#EBF5FF" stroke="#B3D9FF"/>
<path fillRule="evenodd" clipRule="evenodd" d="M132.105 20.2583L137.34 15.0232C137.574 14.7893 137.574 14.4103 137.34 14.1762C137.105 13.9412 136.723 13.9412 136.488 14.1762L131.258 19.4103L126.023 14.1762C125.789 13.9412 125.41 13.9412 125.176 14.1762C124.941 14.4103 124.941 14.7893 125.176 15.0273L130.41 20.2583L125.176 25.4882C124.941 25.7232 124.941 26.1053 125.176 26.3403C125.293 26.4572 125.445 26.5162 125.602 26.5162C125.754 26.5162 125.906 26.4572 126.023 26.3403L131.258 21.1052L136.488 26.3403C136.609 26.4572 136.762 26.5162 136.914 26.5162C137.066 26.5162 137.223 26.4572 137.34 26.3403C137.574 26.1053 137.574 25.7232 137.34 25.4882L132.105 20.2583Z" fill="#2979FF"/>
<path d="M29.375 13.5H30.95V24H29.57V15.795L26.135 21.51H25.955L22.52 15.81V24H21.125V13.5H22.7L26.045 19.05L29.375 13.5ZM39.3903 23.055C38.6303 23.815 37.6953 24.195 36.5853 24.195C35.4753 24.195 34.5403 23.815 33.7803 23.055C33.0203 22.295 32.6403 21.36 32.6403 20.25C32.6403 19.14 33.0203 18.205 33.7803 17.445C34.5403 16.685 35.4753 16.305 36.5853 16.305C37.6953 16.305 38.6303 16.685 39.3903 17.445C40.1603 18.215 40.5453 19.15 40.5453 20.25C40.5453 21.35 40.1603 22.285 39.3903 23.055ZM36.5853 22.92C37.3353 22.92 37.9653 22.665 38.4753 22.155C38.9853 21.645 39.2403 21.01 39.2403 20.25C39.2403 19.49 38.9853 18.855 38.4753 18.345C37.9653 17.835 37.3353 17.58 36.5853 17.58C35.8453 17.58 35.2203 17.835 34.7103 18.345C34.2003 18.855 33.9453 19.49 33.9453 20.25C33.9453 21.01 34.2003 21.645 34.7103 22.155C35.2203 22.665 35.8453 22.92 36.5853 22.92ZM47.2738 19.62V16.5H48.5788V24H47.2738V20.865H43.3888V24H42.0837V16.5H43.3888V19.62H47.2738ZM51.8552 21.765L56.0102 16.5H57.0602V24H55.7702V18.735L51.6152 24H50.5652V16.5H51.8552V21.765ZM58.2066 16.5H64.6266V17.76H62.0766V24H60.7716V17.76H58.2066V16.5ZM71.8073 23.055C71.0473 23.815 70.1123 24.195 69.0023 24.195C67.8923 24.195 66.9573 23.815 66.1973 23.055C65.4373 22.295 65.0573 21.36 65.0573 20.25C65.0573 19.14 65.4373 18.205 66.1973 17.445C66.9573 16.685 67.8923 16.305 69.0023 16.305C70.1123 16.305 71.0473 16.685 71.8073 17.445C72.5773 18.215 72.9623 19.15 72.9623 20.25C72.9623 21.35 72.5773 22.285 71.8073 23.055ZM69.0023 22.92C69.7523 22.92 70.3823 22.665 70.8923 22.155C71.4023 21.645 71.6573 21.01 71.6573 20.25C71.6573 19.49 71.4023 18.855 70.8923 18.345C70.3823 17.835 69.7523 17.58 69.0023 17.58C68.2623 17.58 67.6373 17.835 67.1273 18.345C66.6173 18.855 66.3623 19.49 66.3623 20.25C66.3623 21.01 66.6173 21.645 67.1273 22.155C67.6373 22.665 68.2623 22.92 69.0023 22.92ZM78.6407 16.305C79.6907 16.305 80.5857 16.69 81.3257 17.46C82.0657 18.23 82.4357 19.16 82.4357 20.25C82.4357 21.35 82.0657 22.285 81.3257 23.055C80.5957 23.815 79.7007 24.195 78.6407 24.195C77.4007 24.195 76.4557 23.7 75.8057 22.71V27H74.5007V16.5H75.8057V17.79C76.4557 16.8 77.4007 16.305 78.6407 16.305ZM78.4757 22.935C79.2257 22.935 79.8557 22.68 80.3657 22.17C80.8757 21.64 81.1307 21 81.1307 20.25C81.1307 19.49 80.8757 18.855 80.3657 18.345C79.8557 17.825 79.2257 17.565 78.4757 17.565C77.7157 17.565 77.0807 17.825 76.5707 18.345C76.0607 18.855 75.8057 19.49 75.8057 20.25C75.8057 21 76.0607 21.64 76.5707 22.17C77.0807 22.68 77.7157 22.935 78.4757 22.935ZM85.2979 19.2H87.1579C87.9079 19.2 88.5279 19.425 89.0179 19.875C89.5179 20.315 89.7679 20.89 89.7679 21.6C89.7679 22.31 89.5179 22.89 89.0179 23.34C88.5179 23.78 87.8979 24 87.1579 24H83.9929V16.5H85.2979V19.2ZM90.7429 24V16.5H92.0479V24H90.7429ZM85.2979 22.785H87.1579C87.5379 22.785 87.8529 22.675 88.1029 22.455C88.3529 22.235 88.4779 21.95 88.4779 21.6C88.4779 21.25 88.3479 20.965 88.0879 20.745C87.8379 20.515 87.5279 20.4 87.1579 20.4H85.2979V22.785Z" fill="#2979FF"/>
</svg>
